<?xml version="1.0" standalone="no"?><!DOCTYPE svg PUBLIC "-//W3C//DTD SVG 1.1//EN" "http://www.w3.org/Graphics/SVG/1.1/DTD/svg11.dtd"><svg t="1571324077540" class="icon" viewBox="0 0 1024 1024" version="1.1" xmlns="http://www.w3.org/2000/svg" p-id="3332" xmlns:xlink="http://www.w3.org/1999/xlink" width="16" height="16"><defs><style type="text/css"></style></defs><path d="M832 851.2H192c-51.2 0-89.6-38.4-89.6-89.6V300.8c0-12.8 12.8-25.6 25.6-25.6s25.6 12.8 25.6 25.6v460.8c0 19.2 19.2 38.4 38.4 38.4h640c12.8 0 19.2-6.4 25.6-12.8 6.4-6.4 12.8-12.8 12.8-25.6V403.2c0-12.8-6.4-19.2-12.8-25.6-6.4-12.8-12.8-12.8-25.6-12.8H531.2c-44.8 0-83.2-19.2-108.8-44.8l-64-64c-19.2-19.2-44.8-32-76.8-32H128c-12.8 0-25.6-12.8-25.6-25.6s12.8-25.6 25.6-25.6h153.6c38.4 0 76.8 19.2 108.8 44.8l64 64c25.6 19.2 51.2 32 76.8 32H832c25.6 0 44.8 6.4 64 25.6 19.2 19.2 25.6 38.4 25.6 64v358.4c0 25.6-6.4 44.8-25.6 64-19.2 19.2-38.4 25.6-64 25.6z" fill="#515151" p-id="3333"></path></svg>