<?xml version="1.0" standalone="no"?><!DOCTYPE svg PUBLIC "-//W3C//DTD SVG 1.1//EN" "http://www.w3.org/Graphics/SVG/1.1/DTD/svg11.dtd"><svg t="1577628906449" class="icon" viewBox="0 0 1024 1024" version="1.1" xmlns="http://www.w3.org/2000/svg" p-id="2752" xmlns:xlink="http://www.w3.org/1999/xlink" width="48" height="48"><defs><style type="text/css"></style></defs><path d="M192 768V256H96a32 32 0 1 1 0-64h96V96a32 32 0 1 1 64 0v96h512V96a32 32 0 0 1 64 0v96h96a32 32 0 0 1 0 64h-96v512h96a32 32 0 0 1 0 64h-96v96a32 32 0 0 1-64 0v-96H256v96a32 32 0 0 1-64 0v-96H96a32 32 0 0 1 0-64h96z m64 0h512V256H256v512z" fill="#333333" p-id="2753"></path></svg>