<?xml version="1.0" standalone="no"?><!DOCTYPE svg PUBLIC "-//W3C//DTD SVG 1.1//EN" "http://www.w3.org/Graphics/SVG/1.1/DTD/svg11.dtd"><svg t="1574253866019" class="icon" viewBox="0 0 1024 1024" version="1.1" xmlns="http://www.w3.org/2000/svg" p-id="1688" xmlns:xlink="http://www.w3.org/1999/xlink" width="48" height="48"><defs><style type="text/css"></style></defs><path d="M188.631579 975.494737L21.557895 361.094737 512 43.115789l490.442105 317.978948-167.073684 619.789474-646.736842-5.389474z m-102.4-592.842105l145.515789 538.947368h560.505264l145.515789-538.947368L512 107.789474 86.231579 382.652632z" fill="#2c2c2c" p-id="1689"></path><path d="M296.421053 824.589474L183.242105 409.6l328.757895-215.578947 328.757895 210.189473-107.789474 414.989474-436.547368 5.389474zM247.915789 431.157895l91.621053 334.147368h350.31579L776.084211 431.157895 512 258.694737 247.915789 431.157895z" fill="#2c2c2c" p-id="1690"></path><path d="M210.189474 975.494737c-5.389474 0-10.778947 0-16.168421-5.389474-10.778947-10.778947-16.168421-26.947368-5.389474-37.726316l301.810526-404.210526c10.778947-10.778947 26.947368-16.168421 37.726316-5.389474 10.778947 10.778947 16.168421 26.947368 5.389474 37.726316l-301.810527 404.210526c-5.389474 10.778947-10.778947 10.778947-21.557894 10.778948z" fill="#2c2c2c" p-id="1691"></path><path d="M512 560.505263h-10.778947l-458.105264-161.68421C32.336842 393.431579 21.557895 377.263158 26.947368 361.094737c5.389474-16.168421 21.557895-21.557895 32.336843-16.168421l458.105263 161.68421c16.168421 5.389474 21.557895 21.557895 16.168421 32.336842 0 16.168421-10.778947 21.557895-21.557895 21.557895z" fill="#2c2c2c" p-id="1692"></path><path d="M512 571.284211c-16.168421 0-26.947368-10.778947-26.947368-26.947369V75.452632c0-16.168421 10.778947-26.947368 26.947368-26.947369s26.947368 10.778947 26.947368 26.947369v468.88421c0 16.168421-10.778947 26.947368-26.947368 26.947369z" fill="#2c2c2c" p-id="1693"></path><path d="M512 560.505263c-10.778947 0-21.557895-5.389474-26.947368-16.168421-5.389474-16.168421 0-26.947368 16.168421-32.336842l452.715789-172.463158c16.168421-5.389474 26.947368 0 32.336842 16.168421 5.389474 16.168421 0 26.947368-16.168421 32.336842l-452.715789 172.463158h-5.389474z" fill="#2c2c2c" p-id="1694"></path><path d="M808.421053 975.494737c-10.778947 0-16.168421-5.389474-21.557895-10.778948l-296.421053-414.989473c-10.778947-10.778947-5.389474-26.947368 5.389474-37.726316 10.778947-10.778947 26.947368-5.389474 37.726316 5.389474l296.421052 414.989473c10.778947 10.778947 5.389474 26.947368-5.389473 37.726316-5.389474 5.389474-10.778947 5.389474-16.168421 5.389474z" fill="#2c2c2c" p-id="1695"></path></svg>