<?xml version="1.0" standalone="no"?><!DOCTYPE svg PUBLIC "-//W3C//DTD SVG 1.1//EN" "http://www.w3.org/Graphics/SVG/1.1/DTD/svg11.dtd"><svg t="1556160817302" class="icon" style="" viewBox="0 0 1024 1024" version="1.1" xmlns="http://www.w3.org/2000/svg" p-id="2218" xmlns:xlink="http://www.w3.org/1999/xlink" width="32" height="32"><defs><style type="text/css"></style></defs><path d="M922 657H102c-44.1 0-80-35.9-80-80V257c0-44.1 35.9-80 80-80h820c44.1 0 80 35.9 80 80v320c0 44.1-35.9 80-80 80zM102 217c-22.1 0-40 17.9-40 40v320c0 22.1 17.9 40 40 40h820c22.1 0 40-17.9 40-40V257c0-22.1-17.9-40-40-40H102z" fill="#857069" p-id="2219"></path><path d="M172 517h680c11 0 20 9 20 20s-9 20-20 20H172c-11 0-20-9-20-20s9-20 20-20z" fill="#857069" p-id="2220"></path><path d="M842 307m-30 0a30 30 0 1 0 60 0 30 30 0 1 0-60 0Z" fill="#857069" p-id="2221"></path><path d="M507 705c11 0 20 9 20 20v80c0 11-9 20-20 20s-20-9-20-20v-80c0-11 9-20 20-20zM257 713c9.6 5.5 12.8 17.8 7.3 27.3l-40 69.3c-5.5 9.6-17.7 12.9-27.3 7.4-9.6-5.5-12.8-17.8-7.3-27.3l40-69.3c5.5-9.6 17.7-12.9 27.3-7.4zM757 713c9.6-5.5 21.8-2.2 27.3 7.3l40 69.3c5.6 9.5 2.3 21.8-7.2 27.3 0 0-0.1 0-0.1 0.1-9.6 5.5-21.8 2.2-27.3-7.3l-40-69.3c-5.6-9.5-2.3-21.8 7.3-27.4-0.1 0 0 0 0 0z" fill="#857069" p-id="2222"></path></svg>