<?xml version="1.0" standalone="no"?><!DOCTYPE svg PUBLIC "-//W3C//DTD SVG 1.1//EN" "http://www.w3.org/Graphics/SVG/1.1/DTD/svg11.dtd"><svg t="1555477881108" class="icon" style="" viewBox="0 0 1024 1024" version="1.1" xmlns="http://www.w3.org/2000/svg" p-id="1976" xmlns:xlink="http://www.w3.org/1999/xlink" width="32" height="32"><defs><style type="text/css"></style></defs><path d="M512 557.714286c62.057143 0 112-49.371429 112-109.714286V192c0-60.342857-49.942857-109.714286-112-109.714286s-112 49.371429-112 109.714286v256c0 60.342857 49.942857 109.714286 112 109.714286z" fill="#D9D9D9" p-id="1977"></path><path d="M889.142857 445.714286c0-5.028571-4.114286-9.142857-9.142857-9.142857h-68.571429c-5.028571 0-9.142857 4.114286-9.142857 9.142857 0 160.342857-129.942857 290.285714-290.285714 290.285714S221.714286 606.057143 221.714286 445.714286c0-5.028571-4.114286-9.142857-9.142857-9.142857h-68.571429c-5.028571 0-9.142857 4.114286-9.142857 9.142857 0 192.8 144.685714 351.885714 331.428571 374.4V937.142857H300.228571c-15.657143 0-28.228571 16.342857-28.228571 36.571429v41.142857c0 5.028571 3.2 9.142857 7.085714 9.142857h465.828572c3.885714 0 7.085714-4.114286 7.085714-9.142857v-41.142857c0-20.228571-12.571429-36.571429-28.228571-36.571429H553.142857V820.685714c188.914286-20.571429 336-180.571429 336-374.971428z" p-id="1978"></path><path d="M512 640c107.314286 0 194.285714-85.942857 194.285714-192V192c0-106.057143-86.971429-192-194.285714-192s-194.285714 85.942857-194.285714 192v256c0 106.057143 86.971429 192 194.285714 192z m-112-448c0-60.342857 49.942857-109.714286 112-109.714286s112 49.371429 112 109.714286v256c0 60.342857-49.942857 109.714286-112 109.714286s-112-49.371429-112-109.714286V192z" p-id="1979"></path></svg>