<?xml version="1.0" standalone="no"?><!DOCTYPE svg PUBLIC "-//W3C//DTD SVG 1.1//EN" "http://www.w3.org/Graphics/SVG/1.1/DTD/svg11.dtd"><svg t="1554520183521" class="icon" style="" viewBox="0 0 1024 1024" version="1.1" xmlns="http://www.w3.org/2000/svg" p-id="3446" xmlns:xlink="http://www.w3.org/1999/xlink" width="32" height="32"><defs><style type="text/css"></style></defs><path d="M677.647059 256l0-90.352941c0-37.436235-23.461647-60.235294-61.771294-60.235294L408.094118 105.411765c-38.249412 0-61.741176 22.799059-61.741176 60.235294l0 90.352941-180.705882 0 0 60.235294 60.235294 0 0 512c0 54.272 33.972706 90.352941 90.352941 90.352941l391.529412 0c55.085176 0 90.352941-33.490824 90.352941-90.352941l0-512 60.235294 0 0-60.235294L677.647059 256zM406.588235 165.647059l210.823529 0-1.264941 90.352941L406.588235 256 406.588235 165.647059zM737.882353 858.352941l-451.764706 0 0-542.117647 451.764706 0L737.882353 858.352941zM466.823529 376.470588l-58.729412 0-1.505882 391.529412 60.235294 0L466.823529 376.470588zM617.411765 376.470588l-60.235294 0 0 391.529412 60.235294 0L617.411765 376.470588z" p-id="3447" fill="#d81e06"></path></svg>