<?xml version="1.0" standalone="no"?><!DOCTYPE svg PUBLIC "-//W3C//DTD SVG 1.1//EN" "http://www.w3.org/Graphics/SVG/1.1/DTD/svg11.dtd"><svg t="1556068818203" class="icon" style="" viewBox="0 0 1024 1024" version="1.1" xmlns="http://www.w3.org/2000/svg" p-id="2830" xmlns:xlink="http://www.w3.org/1999/xlink" width="32" height="32"><defs><style type="text/css"></style></defs><path d="M738.133333 768c72.533333-64 115.2-153.6 115.2-256a341.333333 341.333333 0 0 0-341.333333-341.333333 341.333333 341.333333 0 0 0-341.333333 341.333333c0 102.4 42.666667 192 115.2 256 64-55.466667 140.8-85.333333 226.133333-85.333333s166.4 29.866667 226.133333 85.333333M512 85.333333a426.666667 426.666667 0 0 1 426.666667 426.666667 426.666667 426.666667 0 0 1-426.666667 426.666667A426.666667 426.666667 0 0 1 85.333333 512 426.666667 426.666667 0 0 1 512 85.333333M298.666667 384a42.666667 42.666667 0 0 1 42.666666 42.666667 42.666667 42.666667 0 0 1-42.666666 42.666666 42.666667 42.666667 0 0 1-42.666667-42.666666 42.666667 42.666667 0 0 1 42.666667-42.666667m128-128a42.666667 42.666667 0 0 1 42.666666 42.666667 42.666667 42.666667 0 0 1-42.666666 42.666666 42.666667 42.666667 0 0 1-42.666667-42.666666 42.666667 42.666667 0 0 1 42.666667-42.666667m298.666666 128a42.666667 42.666667 0 0 1 42.666667 42.666667 42.666667 42.666667 0 0 1-42.666667 42.666666 42.666667 42.666667 0 0 1-42.666666-42.666666 42.666667 42.666667 0 0 1 42.666666-42.666667m-110.933333-123.733333c21.333333 8.533333 29.866667 34.133333 25.6 55.466666l-59.733333 145.066667c8.533333 12.8 17.066667 29.866667 17.066666 51.2a85.333333 85.333333 0 0 1-85.333333 85.333333 85.333333 85.333333 0 0 1-85.333333-85.333333c0-42.666667 29.866667-81.066667 72.533333-85.333333l59.733333-140.8c8.533333-25.6 34.133333-34.133333 55.466667-25.6z" fill="" p-id="2831"></path></svg>