<?xml version="1.0" standalone="no"?><!DOCTYPE svg PUBLIC "-//W3C//DTD SVG 1.1//EN" "http://www.w3.org/Graphics/SVG/1.1/DTD/svg11.dtd"><svg t="1556092857987" class="icon" style="" viewBox="0 0 1024 1024" version="1.1" xmlns="http://www.w3.org/2000/svg" p-id="2658" xmlns:xlink="http://www.w3.org/1999/xlink" width="16" height="16"><defs><style type="text/css"></style></defs><path d="M511.333 64.238c-247.96 0-448.971 201.011-448.971 448.971S263.374 962.18 511.333 962.18s448.971-201.011 448.971-448.971S759.293 64.238 511.333 64.238z m-5.201 694.747c-14.054 14.06-36.844 14.06-50.908 0L234.185 537.95c-7.023-7.03-10.537-16.237-10.537-25.45 0-9.214 3.52-18.427 10.537-25.45l221.039-221.032c14.064-14.064 36.854-14.064 50.908 0 14.056 14.053 14.056 36.847 0 50.907L310.557 512.5l195.575 195.579c14.056 14.053 14.056 36.853 0 50.906z m224.079-50.907c14.053 14.054 14.053 36.854 0 50.907-14.054 14.06-36.847 14.06-50.908 0L458.261 537.95c-7.016-7.023-10.537-16.237-10.537-25.45 0-9.214 3.514-18.42 10.537-25.45l221.042-221.032c14.06-14.064 36.854-14.064 50.908 0 14.053 14.053 14.053 36.847 0 50.907L534.636 512.5l195.575 195.578z" p-id="2659"></path></svg>