<?xml version="1.0" standalone="no"?><!DOCTYPE svg PUBLIC "-//W3C//DTD SVG 1.1//EN" "http://www.w3.org/Graphics/SVG/1.1/DTD/svg11.dtd"><svg t="1556160888595" class="icon" style="" viewBox="0 0 1024 1024" version="1.1" xmlns="http://www.w3.org/2000/svg" p-id="2967" xmlns:xlink="http://www.w3.org/1999/xlink" width="32" height="32"><defs><style type="text/css"></style></defs><path d="M452 837.03125H249.6875c-34.6875 0-62.90625-28.21875-62.90625-62.90625V391.8125c0-13.96875 11.34375-25.3125 25.3125-25.3125s25.3125 11.34375 25.3125 25.3125v382.3125c0 6.75 5.53125 12.28125 12.28125 12.28125H452c13.96875 0 25.3125 11.34375 25.3125 25.3125s-11.34375 25.3125-25.3125 25.3125zM812.1875 537.125c-13.96875 0-25.3125-11.34375-25.3125-25.3125V397.625c0-13.96875 11.34375-25.3125 25.3125-25.3125s25.3125 11.34375 25.3125 25.3125v114.1875c0 13.96875-11.34375 25.3125-25.3125 25.3125zM774.5 837.03125H572.09375c-13.96875 0-25.3125-11.34375-25.3125-25.3125s11.34375-25.3125 25.3125-25.3125H774.5c6.75 0 12.28125-5.53125 12.28125-12.28125v-82.21875c0-13.96875 11.34375-25.3125 25.3125-25.3125s25.3125 11.34375 25.3125 25.3125v82.21875c0.09375 34.6875-28.125 62.90625-62.90625 62.90625z" p-id="2968"></path><path d="M110.75 497c-7.40625 0-14.8125-3.28125-19.78125-9.5625-8.71875-10.96875-6.9375-26.8125 4.03125-35.53125l369.75-294.9375c13.21875-10.5 29.71875-16.3125 46.59375-16.3125h0.09375c16.875 0 33.46875 5.8125 46.6875 16.40625L902 432.5c10.875 8.71875 12.65625 24.65625 3.9375 35.625-8.71875 10.875-24.65625 12.65625-35.625 3.9375L526.34375 196.53125c-8.8125-7.125-21.1875-7.125-30.09375 0L126.5 491.46875c-4.59375 3.75-10.21875 5.53125-15.75 5.53125zM572.09375 837.03125c-1.5 0-2.90625-0.09375-4.3125-0.375-1.40625 0.28125-2.8125 0.375-4.3125 0.375H452c-13.96875 0-25.3125-11.34375-25.3125-25.3125V632.09375c0-47.0625 38.34375-85.40625 85.40625-85.40625 22.78125 0 44.25 8.90625 60.375 25.03125 16.125 16.125 25.03125 37.59375 25.03125 60.375v179.625c-0.09375 13.96875-11.4375 25.3125-25.40625 25.3125z m-94.78125-50.625h69.5625V632.09375c0-9.28125-3.65625-18-10.21875-24.5625S521.375 597.3125 512.09375 597.3125c-19.125 0-34.78125 15.5625-34.78125 34.78125v154.3125z" p-id="2969"></path></svg>