<?xml version="1.0" standalone="no"?><!DOCTYPE svg PUBLIC "-//W3C//DTD SVG 1.1//EN" "http://www.w3.org/Graphics/SVG/1.1/DTD/svg11.dtd"><svg t="1557380142702" class="icon" style="" viewBox="0 0 1024 1024" version="1.1" xmlns="http://www.w3.org/2000/svg" p-id="9029" xmlns:xlink="http://www.w3.org/1999/xlink" width="16" height="16"><defs><style type="text/css"></style></defs><path d="M362.971 660.371l139.518-34.873 458.43-458.429L856.274 62.436l-458.43 458.43-34.873 139.505z m104.645-139.505l390.659-386.671 32.886 32.874-388.672 388.669-69.759 34.886 34.886-69.758z" p-id="9030"></path><path d="M833.422 512c-17.678 0-32.009 14.323-32.022 31.997h-0.001v351.722H127.637V223.957h415.561v-0.461c17.424-0.093 31.52-14.242 31.52-31.688s-14.096-31.595-31.52-31.688v-0.004H113.637c-27.524 0-49.84 22.316-49.84 49.84v699.762c0 27.523 22.316 49.839 49.84 49.839h701.762c27.524 0 49.84-22.315 49.84-49.839v-362.1a32.33 32.33 0 0 0 0.206-3.595C865.444 526.337 851.107 512 833.422 512z" p-id="9031"></path></svg>