<?xml version="1.0" standalone="no"?><!DOCTYPE svg PUBLIC "-//W3C//DTD SVG 1.1//EN" "http://www.w3.org/Graphics/SVG/1.1/DTD/svg11.dtd"><svg t="1574244008987" class="icon" viewBox="0 0 1024 1024" version="1.1" xmlns="http://www.w3.org/2000/svg" p-id="4285" xmlns:xlink="http://www.w3.org/1999/xlink" width="48" height="48"><defs><style type="text/css"></style></defs><path d="M918.648471 0 737.822118 0 737.581176 0.240941C737.460706 0.240941 737.340235 0.180706 737.219765 0.180706 720.293647 0.180706 706.319059 11.986824 703.789176 27.286588L703.488 27.527529C694.332235 65.415529 681.140706 115.049412 638.192941 115.049412L367.134118 115.049412C324.788706 115.049412 312.079059 66.078118 302.320941 28.973176 300.694588 13.613176 287.683765 1.626353 271.299765 0.421647L270.878118 0 105.411765 0C80.474353 0 60.235294 19.094588 60.235294 42.646588L60.235294 981.353412C60.235294 1004.905412 80.474353 1024 105.411765 1024L918.588235 1024C943.525647 1024 963.764706 1004.905412 963.764706 981.353412L963.764706 42.646588C963.824941 19.094588 943.525647 0 918.648471 0L918.648471 0 918.648471 0ZM918.648471 981.353412 105.411765 981.353412 105.411765 42.646588 259.493647 42.646588C270.516706 84.449882 291.478588 157.696 367.254588 157.696L638.313412 157.696C714.691765 157.696 736.195765 83.486118 746.194824 42.646588L918.588235 42.646588 918.588235 981.353412 918.648471 981.353412 918.648471 981.353412 918.648471 981.353412ZM398.998588 42.767059 625.061647 42.767059C637.590588 42.767059 647.649882 33.249882 647.649882 21.443765 647.649882 9.697882 637.590588 0.120471 625.061647 0.120471L398.998588 0.120471C386.529882 0.120471 376.410353 9.697882 376.410353 21.443765 376.410353 33.249882 386.529882 42.767059 398.998588 42.767059L398.998588 42.767059 398.998588 42.767059ZM204.257882 364.062118C204.257882 375.868235 214.377412 385.385412 226.846118 385.385412L803.117176 385.385412C815.585882 385.385412 825.705412 375.868235 825.705412 364.062118 825.705412 352.316235 815.585882 342.738824 803.117176 342.738824L226.846118 342.738824C214.377412 342.738824 204.257882 352.316235 204.257882 364.062118L204.257882 364.062118 204.257882 364.062118ZM803.117176 546.695529 226.846118 546.695529C214.377412 546.695529 204.257882 556.212706 204.257882 568.018824 204.257882 579.824941 214.377412 589.342118 226.846118 589.342118L803.117176 589.342118C815.585882 589.342118 825.705412 579.824941 825.705412 568.018824 825.705412 556.212706 815.585882 546.695529 803.117176 546.695529L803.117176 546.695529 803.117176 546.695529ZM803.117176 749.146353 226.846118 749.146353C214.377412 749.146353 204.257882 758.663529 204.257882 770.469647 204.257882 782.275765 214.377412 791.792941 226.846118 791.792941L803.117176 791.792941C815.585882 791.792941 825.705412 782.275765 825.705412 770.469647 825.705412 758.663529 815.585882 749.146353 803.117176 749.146353L803.117176 749.146353 803.117176 749.146353Z" p-id="4286" fill="#8a8a8a"></path></svg>