<?xml version="1.0" standalone="no"?><!DOCTYPE svg PUBLIC "-//W3C//DTD SVG 1.1//EN" "http://www.w3.org/Graphics/SVG/1.1/DTD/svg11.dtd"><svg t="1573113246592" class="icon" viewBox="0 0 1024 1024" version="1.1" xmlns="http://www.w3.org/2000/svg" p-id="3169" xmlns:xlink="http://www.w3.org/1999/xlink" width="48" height="48"><defs><style type="text/css"></style></defs><path d="M509.013333 938.666667c-246.997333 0-448-201.002667-448-448C61.013333 243.626667 262.016 42.666667 509.013333 42.666667s448 200.96 448 448c0 11.776-9.557333 21.333333-21.333333 21.333333s-21.333333-9.557333-21.333333-21.333333c0-223.488-181.845333-405.333333-405.333333-405.333333s-405.333333 181.845333-405.333333 405.333333 181.845333 405.333333 405.333333 405.333333c166.485333 0 318.592-104.362667 378.368-259.712 4.266667-11.008 16.64-16.426667 27.562667-12.245333 11.008 4.224 16.469333 16.597333 12.245333 27.562667C861.141333 823.338667 693.077333 938.666667 509.013333 938.666667zM398.762667 661.333333l0-341.333333 284.501333 170.666667L398.762667 661.333333z" p-id="3170" fill="#1afa29"></path></svg>