<?xml version="1.0" standalone="no"?><!DOCTYPE svg PUBLIC "-//W3C//DTD SVG 1.1//EN" "http://www.w3.org/Graphics/SVG/1.1/DTD/svg11.dtd"><svg t="1556170427610" class="icon" style="" viewBox="0 0 1024 1024" version="1.1" xmlns="http://www.w3.org/2000/svg" p-id="4442" xmlns:xlink="http://www.w3.org/1999/xlink" width="16" height="16"><defs><style type="text/css"></style></defs><path d="M832 421.376l-43.008-15.36a11.264 11.264 0 0 1-6.656-15.36l19.456-40.96a96.256 96.256 0 0 0-128-128l-40.96 19.456a10.752 10.752 0 0 1-9.216 0 11.264 11.264 0 0 1-6.144-6.656l-15.36-43.008a96.256 96.256 0 0 0-181.248 0l-15.36 43.008a11.264 11.264 0 0 1-6.144 6.656 10.752 10.752 0 0 1-9.216 0l-40.96-19.456a96.256 96.256 0 0 0-128 128l19.456 40.96a11.264 11.264 0 0 1-6.656 15.36l-43.008 15.36a96.256 96.256 0 0 0 0 181.248l43.008 15.36a11.264 11.264 0 0 1 6.656 15.36l-19.456 40.96a96.256 96.256 0 0 0 128 128l40.96-19.456a10.752 10.752 0 0 1 9.216 0 11.264 11.264 0 0 1 6.144 6.656l15.36 43.008a96.256 96.256 0 0 0 181.248 0l15.36-42.496a11.264 11.264 0 0 1 6.144-6.656 11.264 11.264 0 0 1 9.216 0l40.96 19.456a96.256 96.256 0 0 0 128-128l-19.456-40.96a11.264 11.264 0 0 1 6.656-15.36l43.008-15.36a96.256 96.256 0 0 0 0-181.248z m-17.408 133.12l-43.008 15.36a62.464 62.464 0 0 0-35.328 85.504l19.456 40.96a45.056 45.056 0 0 1-59.904 59.904l-40.96-19.456a62.464 62.464 0 0 0-85.504 35.328l-15.36 42.496a45.056 45.056 0 0 1-84.48 0l-15.36-43.008a62.464 62.464 0 0 0-85.504-35.328l-40.96 19.456a45.056 45.056 0 0 1-59.904-59.392l19.456-40.96a62.464 62.464 0 0 0-35.328-85.504l-43.008-15.36a45.056 45.056 0 0 1 0-84.48l43.008-15.36a62.464 62.464 0 0 0 35.328-86.016l-19.456-40.96A45.056 45.056 0 0 1 327.68 267.776l40.96 19.456a62.464 62.464 0 0 0 85.504-35.328l15.36-43.008a45.056 45.056 0 0 1 84.48 0l15.36 43.008a62.464 62.464 0 0 0 85.504 35.328l40.96-19.456a45.056 45.056 0 0 1 60.416 59.904l-19.456 40.96a62.464 62.464 0 0 0 35.328 85.504l43.008 15.36a45.056 45.056 0 0 1 0 84.48z" fill="#8a8a8a" p-id="4443"></path><path d="M512 399.36a112.64 112.64 0 1 0 112.64 112.64A113.152 113.152 0 0 0 512 399.36z m0 174.592A61.44 61.44 0 1 1 573.44 512a61.44 61.44 0 0 1-61.44 61.44z" fill="#8a8a8a" p-id="4444"></path></svg>