<?xml version="1.0" standalone="no"?><!DOCTYPE svg PUBLIC "-//W3C//DTD SVG 1.1//EN" "http://www.w3.org/Graphics/SVG/1.1/DTD/svg11.dtd"><svg t="1556158865672" class="icon" style="" viewBox="0 0 1024 1024" version="1.1" xmlns="http://www.w3.org/2000/svg" p-id="2061" xmlns:xlink="http://www.w3.org/1999/xlink" width="32" height="32"><defs><style type="text/css"></style></defs><path d="M682.752 547.84V191.0272c0-94.6176-79.8208-172.032-177.3568-172.032s-177.408 77.4144-177.408 172.032v364.9536a253.7472 253.7472 0 0 0-84.1728 188.0064c0 142.4896 119.0912 258.048 266.24 258.048s266.24-115.5584 266.24-258.048A254.5152 254.5152 0 0 0 682.752 547.84z m-172.9024 401.408c-116.8384 0-211.9168-92.16-211.9168-205.5168a200.3456 200.3456 0 0 1 67.1232-149.504l17.1008-15.36V190.8736c0-65.8944 55.2448-119.5008 123.2384-119.5008s123.1872 53.6064 123.1872 119.5008v381.184l18.9952 15.7696A202.8032 202.8032 0 0 1 721.92 743.8848c0 113.3568-95.1808 205.5168-212.0704 205.5168z m102.4-321.6896l-37.7856-31.4368V190.8736c0-36.2496-31.6928-67.0208-69.0688-67.0208s-69.12 30.72-69.12 67.0208v20.48H481.28v32.0512h-45.0048v51.7632H481.28v32.0512h-45.0048V378.88H481.28v32.1024h-45.0048V462.848H481.28v32.0512h-45.0048v106.4448l-34.2016 31.0784a149.5552 149.5552 0 0 0-49.9712 111.4624c0 84.4288 70.7072 153.0368 157.7472 153.0368s157.7984-68.7104 157.7984-153.0368a150.9888 150.9888 0 0 0-55.3984-116.1728z m-102.4 234.24c-67.072 0-121.7536-52.992-121.7536-118.0672a115.2512 115.2512 0 0 1 38.7072-85.9136l45.5168-41.472v-64h66.0992v60.0064l50.3808 41.8816a116.736 116.736 0 0 1 42.8032 89.6512c0 65.0752-54.6304 118.0672-121.7536 118.0672z" fill="#232632" p-id="2062"></path></svg>