<?xml version="1.0" standalone="no"?><!DOCTYPE svg PUBLIC "-//W3C//DTD SVG 1.1//EN" "http://www.w3.org/Graphics/SVG/1.1/DTD/svg11.dtd"><svg t="1556448217104" class="icon" style="" viewBox="0 0 1031 1024" version="1.1" xmlns="http://www.w3.org/2000/svg" p-id="6868" xmlns:xlink="http://www.w3.org/1999/xlink" width="32.21875" height="32"><defs><style type="text/css"></style></defs><path d="M843.51176 1024H707.69576c-41.736 0-75.68-33.144-75.68-73.856V709.656c0-15.6-12.616-28.312-28.168-28.312H422.35976c-15.544 0-28.192 12.712-28.192 28.312v240.488c0 40.72-33.128 73.856-73.832 73.856H186.51976c-40.704 0-73.832-33.144-73.832-73.856l0.192-448.16H30.54376a30.56 30.56 0 0 1-28.008-18.352 30.504 30.504 0 0 1 5.64-32.976l484.88-441.344c11.576-12.408 33.176-12.408 44.744 0l481.648 437.832a30.424 30.424 0 0 1 12.048 24.296 30.52 30.52 0 0 1-31.136 30.544h-82.328v448.16c-0.008 40.712-33.448 73.856-74.52 73.856zM422.35976 620.248h181.496c49.216 0 89.256 40.096 89.256 89.408v240.488c0 6.68 6.944 12.768 14.584 12.768h135.816c7.4 0 13.424-5.728 13.424-12.768V471.44a30.52 30.52 0 0 1 30.544-30.528h42.752L515.42376 74.96 100.67176 440.904h42.776a30.56 30.56 0 0 1 30.552 30.56l-0.208 478.704c0 7.008 5.712 12.736 12.736 12.736h133.816c7.024 0 12.736-5.728 12.736-12.768v-240.48c0-49.312 40.04-89.408 89.28-89.408z" fill="#8a8a8a" p-id="6869"></path></svg>