<?xml version="1.0" standalone="no"?><!DOCTYPE svg PUBLIC "-//W3C//DTD SVG 1.1//EN" "http://www.w3.org/Graphics/SVG/1.1/DTD/svg11.dtd"><svg t="1553509800199" class="icon" style="" viewBox="0 0 1024 1024" version="1.1" xmlns="http://www.w3.org/2000/svg" p-id="1979" xmlns:xlink="http://www.w3.org/1999/xlink" width="48" height="48"><defs><style type="text/css"></style></defs><path d="M170.666667 42.666667l682.666667 0q52.992 0 90.496 37.504t37.504 90.496l0 682.666667q0 52.992-37.504 90.496t-90.496 37.504l-682.666667 0q-52.992 0-90.496-37.504t-37.504-90.496l0-682.666667q0-52.992 37.504-90.496t90.496-37.504zM896 742.997333l-213.333333-213.333333-366.336 366.336 537.002667 0q17.664 0 30.165333-12.501333t12.501333-30.165333l0-110.336zM853.333333 128l-682.666667 0q-17.664 0-30.165333 12.501333t-12.501333 30.165333l0 682.666667q0 17.664 12.501333 30.165333t30.165333 12.501333l25.002667 0 486.997333-486.997333 213.333333 213.333333 0-451.669333q0-17.664-12.501333-30.165333t-30.165333-12.501333zM341.333333 213.333333q52.992 0 90.496 37.504t37.504 90.496-37.504 90.496-90.496 37.504-90.496-37.504-37.504-90.496 37.504-90.496 90.496-37.504zM341.333333 298.666667q-17.664 0-30.165333 12.501333t-12.501333 30.165333 12.501333 30.165333 30.165333 12.501333 30.165333-12.501333 12.501333-30.165333-12.501333-30.165333-30.165333-12.501333z" p-id="1980"></path></svg>