<?xml version="1.0" standalone="no"?><!DOCTYPE svg PUBLIC "-//W3C//DTD SVG 1.1//EN" "http://www.w3.org/Graphics/SVG/1.1/DTD/svg11.dtd"><svg t="1556003859204" class="icon" style="" viewBox="0 0 1024 1024" version="1.1" xmlns="http://www.w3.org/2000/svg" p-id="3386" xmlns:xlink="http://www.w3.org/1999/xlink" width="32" height="32"><defs><style type="text/css"></style></defs><path d="M853.333333 85.333333H170.666667a85.333333 85.333333 0 0 0-85.333334 85.333334v768l170.666667-170.666667h597.333333a85.333333 85.333333 0 0 0 85.333334-85.333333V170.666667a85.333333 85.333333 0 0 0-85.333334-85.333334M341.333333 597.333333H256v-85.333333h85.333333v85.333333m0-128H256V384h85.333333v85.333333m0-128H256V256h85.333333v85.333333m298.666667 256h-213.333333v-85.333333h213.333333v85.333333m128-128h-341.333333V384h341.333333v85.333333m0-128h-341.333333V256h341.333333v85.333333z" fill="" p-id="3387"></path></svg>