<?xml version="1.0" standalone="no"?><!DOCTYPE svg PUBLIC "-//W3C//DTD SVG 1.1//EN" "http://www.w3.org/Graphics/SVG/1.1/DTD/svg11.dtd"><svg t="1573177873438" class="icon" viewBox="0 0 1024 1024" version="1.1" xmlns="http://www.w3.org/2000/svg" p-id="5714" xmlns:xlink="http://www.w3.org/1999/xlink" width="48" height="48"><defs><style type="text/css"></style></defs><path d="M139.636364 395.636364C74.472727 395.636364 23.272727 446.836364 23.272727 512s51.2 116.363636 116.363637 116.363636 116.363636-51.2 116.363636-116.363636S204.8 395.636364 139.636364 395.636364z m0 186.181818c-37.236364 0-69.818182-32.581818-69.818182-69.818182S102.4 442.181818 139.636364 442.181818s69.818182 32.581818 69.818181 69.818182-32.581818 69.818182-69.818181 69.818182zM512 395.636364c-65.163636 0-116.363636 51.2-116.363636 116.363636s51.2 116.363636 116.363636 116.363636 116.363636-51.2 116.363636-116.363636-51.2-116.363636-116.363636-116.363636z m0 186.181818c-37.236364 0-69.818182-32.581818-69.818182-69.818182s32.581818-69.818182 69.818182-69.818182 69.818182 32.581818 69.818182 69.818182-32.581818 69.818182-69.818182 69.818182zM884.363636 395.636364c-65.163636 0-116.363636 51.2-116.363636 116.363636s51.2 116.363636 116.363636 116.363636 116.363636-51.2 116.363637-116.363636-51.2-116.363636-116.363637-116.363636z m0 186.181818c-37.236364 0-69.818182-32.581818-69.818181-69.818182s32.581818-69.818182 69.818181-69.818182 69.818182 32.581818 69.818182 69.818182-32.581818 69.818182-69.818182 69.818182z" fill="" p-id="5715"></path></svg>