<?xml version="1.0" standalone="no"?><!DOCTYPE svg PUBLIC "-//W3C//DTD SVG 1.1//EN" "http://www.w3.org/Graphics/SVG/1.1/DTD/svg11.dtd"><svg t="1553575343317" class="icon" style="" viewBox="0 0 1024 1024" version="1.1" xmlns="http://www.w3.org/2000/svg" p-id="1705" xmlns:xlink="http://www.w3.org/1999/xlink" width="48" height="48"><defs><style type="text/css"></style></defs><path d="M928 896H96a53.393333 53.393333 0 0 1-53.333333-53.333333V181.333333a53.393333 53.393333 0 0 1 53.333333-53.333333h832a53.393333 53.393333 0 0 1 53.333333 53.333333v661.333334a53.393333 53.393333 0 0 1-53.333333 53.333333zM96 170.666667a10.666667 10.666667 0 0 0-10.666667 10.666666v661.333334a10.666667 10.666667 0 0 0 10.666667 10.666666h832a10.666667 10.666667 0 0 0 10.666667-10.666666V181.333333a10.666667 10.666667 0 0 0-10.666667-10.666666z" fill="#5C5C66" p-id="1706"></path></svg>