<?xml version="1.0" standalone="no"?><!DOCTYPE svg PUBLIC "-//W3C//DTD SVG 1.1//EN" "http://www.w3.org/Graphics/SVG/1.1/DTD/svg11.dtd"><svg t="1577530643391" class="icon" viewBox="0 0 1024 1024" version="1.1" xmlns="http://www.w3.org/2000/svg" p-id="7234" xmlns:xlink="http://www.w3.org/1999/xlink" width="48" height="48"><defs><style type="text/css"></style></defs><path d="M937.4 378.7c-13.8-27.4-33.4-51.9-58.3-72.8-50.1-42.1-116.4-65.3-186.7-65.3H436.9c-1.7 0-3.3 0.2-4.9 0.6V117.4c0-19.2-9.2-36.4-24.7-45.9-15.4-9.6-33.9-9.6-49.3 0L104.6 228.9c-15.4 9.6-24.7 26.8-24.7 45.9 0 19.2 9.2 36.4 24.7 45.9l253.5 157.5c7.7 4.8 16.2 7.2 24.7 7.2 6.7 0 13.4-1.5 19.7-4.5 18.2-8.6 29.6-28.4 29.6-49.8V288.3c1.6 0.4 3.2 0.6 4.9 0.6h255.5c60.3 0 116.8 19.6 159.1 55.1 40.6 34.1 63 79 63 126.3V730c0 47.3-22.4 92.1-63 126.3-42.3 35.5-98.8 55.1-159.1 55.1H86.2c-12.4 0-22.4 10.8-22.4 24.1s10 24.1 22.4 24.1h606.2c70.3 0 136.6-23.2 186.7-65.3 24.9-20.9 44.5-45.4 58.3-72.8 14.5-28.9 21.9-59.7 21.9-91.4V470.2c0.1-31.8-7.3-62.6-21.9-91.5z m-550.2 53.6c0 1.8-0.7 3.2-2.1 4.1-1.5 1-3.4 0.9-4.8-0.1L127 279c-1.5-0.9-2.2-2.3-2.3-4 0-1.9 1-3.6 2.5-4.5l253.3-157.3c1.5-0.9 2.9-0.9 4.4-0.1 1.5 0.9 2.4 2.7 2.4 4.5v314.7z" p-id="7235" fill="#d81e06"></path></svg>