<?xml version="1.0" standalone="no"?><!DOCTYPE svg PUBLIC "-//W3C//DTD SVG 1.1//EN" "http://www.w3.org/Graphics/SVG/1.1/DTD/svg11.dtd"><svg t="1553500168668" class="icon" style="" viewBox="0 0 1024 1024" version="1.1" xmlns="http://www.w3.org/2000/svg" p-id="1106" xmlns:xlink="http://www.w3.org/1999/xlink" width="48" height="48"><defs><style type="text/css"></style></defs><path d="M854.4 397.44c-17.92 0-32-14.08-32-32V286.72c0-14.72-8.96-26.24-17.28-26.24H225.92c-8.32 0-17.28 10.88-17.28 26.24v78.72c0 17.92-14.08 32-32 32s-32-14.08-32-32V286.72c0-49.92 36.48-90.24 81.28-90.24h579.2c44.8 0 81.28 40.32 81.28 90.24v78.72c0 17.28-14.72 32-32 32z" fill="#515151" p-id="1107"></path><path d="M515.2 891.52c-17.92 0-32-14.08-32-32v-627.2c0-17.92 14.08-32 32-32s32 14.08 32 32v627.2c0 17.28-14.08 32-32 32z" fill="#515151" p-id="1108"></path><path d="M626.56 899.2H403.84c-17.92 0-32-14.08-32-32s14.08-32 32-32h222.72c17.92 0 32 14.08 32 32s-14.08 32-32 32z" fill="#515151" p-id="1109"></path></svg>