<?xml version="1.0" standalone="no"?><!DOCTYPE svg PUBLIC "-//W3C//DTD SVG 1.1//EN" "http://www.w3.org/Graphics/SVG/1.1/DTD/svg11.dtd"><svg t="1554361459831" class="icon" style="" viewBox="0 0 1024 1024" version="1.1" xmlns="http://www.w3.org/2000/svg" p-id="1417" xmlns:xlink="http://www.w3.org/1999/xlink" width="16" height="16"><defs><style type="text/css"></style></defs><path d="M871 729.4L519.5 377.9c-1.9-1.9-4.5-3.1-7.5-3.1s-5.6 1.2-7.6 3.2L153 729.4c-13.9 13.9-36.7 13.9-50.6 0-13.9-13.9-13.9-36.7 0-50.6l384.3-384.3c13.9-13.9 36.7-13.9 50.6 0 0.1 0.1 0.1 0.1 0.1 0.2l384.1 384.1c13.9 13.9 13.9 36.7 0 50.6-13.8 13.9-36.6 13.9-50.5 0z" p-id="1418"></path><path d="M522.2 382.8c0 0.2 0.1 0.3 0.1 0.5 0-0.2 0-0.3-0.1-0.5zM521.6 381.1c0 0.1 0.1 0.1 0.1 0.2 0-0.1 0-0.1-0.1-0.2zM522.6 385.4v-0.1 0.1z" p-id="1419"></path></svg>