<?xml version="1.0" standalone="no"?><!DOCTYPE svg PUBLIC "-//W3C//DTD SVG 1.1//EN" "http://www.w3.org/Graphics/SVG/1.1/DTD/svg11.dtd"><svg t="1574251507726" class="icon" viewBox="0 0 1024 1024" version="1.1" xmlns="http://www.w3.org/2000/svg" p-id="2169" xmlns:xlink="http://www.w3.org/1999/xlink" width="48" height="48"><defs><style type="text/css"></style></defs><path d="M467.6 538.9l252.8 252.8c-32.7 33.3-70.9 59.3-114.6 77.8-43.7 18.5-89.8 27.8-138.2 27.8-64.5 0-124-15.9-178.5-47.7-54.5-31.7-97.7-74.8-129.4-129.4-31.8-54.5-47.7-114-47.7-178.5 0-64.4 15.9-123.9 47.7-178.5 31.7-54.4 74.8-97.6 129.4-129.4 54.4-31.7 113.9-47.7 178.5-47.7v352.8z m414.9-56.5H526.8V126.7c64.4 0 123.9 15.9 178.5 47.7 54.4 31.8 97.6 74.9 129.4 129.4 31.7 54.6 47.8 114.1 47.8 178.6z m-328.4 59.2H912c0 48.5-9.3 94.5-27.8 138.2-18.5 43.7-44.4 81.9-77.8 114.6L554.1 541.6z" p-id="2170" fill="#2c2c2c"></path></svg>