<?xml version="1.0" standalone="no"?><!DOCTYPE svg PUBLIC "-//W3C//DTD SVG 1.1//EN" "http://www.w3.org/Graphics/SVG/1.1/DTD/svg11.dtd"><svg t="1573113221247" class="icon" viewBox="0 0 1024 1024" version="1.1" xmlns="http://www.w3.org/2000/svg" p-id="2204" xmlns:xlink="http://www.w3.org/1999/xlink" width="48" height="48"><defs><style type="text/css"></style></defs><path d="M243.199 119.696h532.929c25.996 0 46.36-8.673 46.36-19.745 0-11.072-20.363-19.745-46.36-19.745H243.199c-25.996 0-46.36 8.673-46.36 19.745 0 11.073 20.364 19.745 46.36 19.745z m669.896 81.474H106.231c-25.997 0-46.36 8.673-46.36 19.745s20.363 19.746 46.36 19.746h73.723v610.321c0 46.35 41.397 84.058 92.281 84.058h480.07c50.885 0 92.282-37.708 92.282-84.058V240.66h68.508c25.996 0 46.361-8.673 46.361-19.746s-20.365-19.744-46.36-19.744zM807.748 850.982c0 26.036-24.872 47.219-55.443 47.219h-480.07c-30.571 0-55.442-21.182-55.442-47.219V240.66h590.954v610.322z m-421.045 29.966c12.207 0 21.77-20.364 21.77-46.361V510.919c0-25.996-9.563-46.36-21.77-46.36s-21.768 20.363-21.768 46.36v323.668c0 25.997 9.562 46.36 21.768 46.36z m124.516 0c12.207 0 21.769-20.364 21.769-46.361V510.919c0-25.996-9.563-46.36-21.769-46.36s-21.768 20.363-21.768 46.36v323.668c0 25.997 9.561 46.36 21.768 46.36z m124.517 0c12.207 0 21.768-20.364 21.768-46.361V510.919c0-25.996-9.562-46.36-21.768-46.36s-21.769 20.363-21.769 46.36v323.668c0 25.997 9.562 46.36 21.77 46.36z" p-id="2205" fill="#d81e06"></path></svg>