<?xml version="1.0" standalone="no"?><!DOCTYPE svg PUBLIC "-//W3C//DTD SVG 1.1//EN" "http://www.w3.org/Graphics/SVG/1.1/DTD/svg11.dtd"><svg t="1556449377121" class="icon" style="" viewBox="0 0 1024 1024" version="1.1" xmlns="http://www.w3.org/2000/svg" p-id="7744" xmlns:xlink="http://www.w3.org/1999/xlink" width="32" height="32"><defs><style type="text/css"></style></defs><path d="M170.666667 955.733333H85.333333a17.066667 17.066667 0 0 1-17.066666-17.066666v-85.333334a17.066667 17.066667 0 0 1 17.066666-17.066666h78.267734L836.266667 163.601067V85.333333a17.066667 17.066667 0 0 1 17.066666-17.066666h85.333334a17.066667 17.066667 0 0 1 17.066666 17.066666v85.333334a17.066667 17.066667 0 0 1-17.066666 17.066666h-78.267734L187.733333 860.398933V938.666667a17.066667 17.066667 0 0 1-17.066666 17.066666z m-68.266667-34.133333h51.2v-51.2H102.4v51.2zM870.4 153.6h51.2V102.4h-51.2v51.2z" p-id="7745"></path></svg>