<?xml version="1.0" standalone="no"?><!DOCTYPE svg PUBLIC "-//W3C//DTD SVG 1.1//EN" "http://www.w3.org/Graphics/SVG/1.1/DTD/svg11.dtd"><svg t="1557467822668" class="icon" style="" viewBox="0 0 1024 1024" version="1.1" xmlns="http://www.w3.org/2000/svg" p-id="4458" xmlns:xlink="http://www.w3.org/1999/xlink" width="16" height="16"><defs><style type="text/css"></style></defs><path d="M410.816311 900.741484c19.469489 0 35.493169 15.764606 35.493169 34.923935s-15.972595 34.923935-35.493169 34.923936H85.548012c-19.425702 0.085142-35.286396-15.503099-35.543037-34.923936V326.4615a35.083272 35.083272 0 0 1 11.227766-25.754168L327.3713 58.932697a37.10843 37.10843 0 0 1 24.210669-9.375325h443.889021c19.471922 0 35.444517 15.758524 35.444517 34.973804v333.990465c0 19.209198-15.972595 34.97502-35.444517 34.97502-19.420836 0.054734-35.260854-15.554184-35.484654-34.97502V119.604718H428.58783v303.176443c0 19.160546-16.020031 34.923935-35.488304 34.923936H126.804062c-1.701619 0-4.120861 0-5.875998-0.518149v443.503451h289.887031v0.051085zM126.855147 387.758705H357.607573V126.563233l-236.623558 215.04377v46.6139c1.749055-0.462198 4.169514-0.462198 5.921001-0.462198h-0.049869z m846.219131 399.734502c-0.228666-19.420836-16.068684-35.029754-35.48952-34.973804h-106.519645v-110.792546c-0.226234-19.400159-16.030978-35.002996-35.439651-34.973804-19.420836-0.060816-35.259637 15.552968-35.484655 34.973804v110.792546H641.774294c-19.403808-0.030408-35.209768 15.573645-35.439652 34.973804 0 19.15933 15.973811 34.923935 35.439652 34.923935h118.366513v110.792546c0 19.214064 15.965297 34.973804 35.484655 34.973804 19.408673 0.029191 35.213417-15.573645 35.439651-34.973804v-110.742677h106.519645c19.440297 0.05595 35.293694-15.583376 35.48952-35.023673v0.049869z m0 0" p-id="4459"></path></svg>