<?xml version="1.0" standalone="no"?><!DOCTYPE svg PUBLIC "-//W3C//DTD SVG 1.1//EN" "http://www.w3.org/Graphics/SVG/1.1/DTD/svg11.dtd"><svg t="1558505139511" class="icon" style="" viewBox="0 0 1024 1024" version="1.1" xmlns="http://www.w3.org/2000/svg" p-id="4739" xmlns:xlink="http://www.w3.org/1999/xlink" width="16" height="16"><defs><style type="text/css"></style></defs><path d="M511.479419 48.134288c-256.007906 0-463.367024 207.354253-463.367024 463.365808s207.357902 463.370673 463.367024 463.370673c256.010339 0 463.367024-207.362767 463.367024-463.370673 0.001216-256.00669-207.356686-463.365808-463.367024-463.365808z m0 860.283334c-219.118412 0-396.918742-177.799114-396.918742-396.916309 0-219.118412 177.799114-396.917526 396.918742-396.917527 219.122061 0 396.924824 177.799114 396.924824 396.917527 0.001216 219.117196-177.802763 396.91631-396.924824 396.916309z" p-id="4740"></path><path d="M564.322047 511.501313l133.868396-133.868397c14.088529-14.089746 14.088529-38.749233 0-52.837762-14.094611-14.094611-38.752882-14.094611-52.842628-0.004865L511.479419 458.658685 377.611023 324.790289c-14.088529-14.088529-38.748017-14.088529-52.841412 0.003648-14.089746 14.089746-14.089746 38.75045-0.001216 52.838979l133.868396 133.868397-133.86718 133.867179c-14.089746 14.090962-14.089746 38.749233 0.003649 52.843845 14.088529 14.088529 38.748017 14.088529 52.837763-0.001217l133.86718-133.868396 133.869612 133.869613c14.089746 14.090962 38.749233 14.090962 52.838979 0 14.093395-14.093395 14.093395-38.751666 0.003649-52.842628L564.322047 511.501313z" p-id="4741"></path></svg>