<?xml version="1.0" standalone="no"?><!DOCTYPE svg PUBLIC "-//W3C//DTD SVG 1.1//EN" "http://www.w3.org/Graphics/SVG/1.1/DTD/svg11.dtd"><svg t="1573116727655" class="icon" viewBox="0 0 1024 1024" version="1.1" xmlns="http://www.w3.org/2000/svg" p-id="4379" xmlns:xlink="http://www.w3.org/1999/xlink" width="48" height="48"><defs><style type="text/css"></style></defs><path d="M839.6 186c-23.5 0-56-1.9-100.8-7.6C606.3 161.5 512 64.3 512 64.3s-94.3 97.2-226.8 114c-44.8 5.7-77.3 7.6-100.8 7.6-46 0-57.1-7.2-57.1-7.2l1.2 462.5s38.3 154.4 179.3 234.6c141 80.1 204.3 83.9 204.3 83.9s63.3-3.8 204.3-83.9c141-80.1 179.3-234.6 179.3-234.6l1.2-462.5c-0.2 0-11.3 7.3-57.3 7.3z m6 448.2c-3.3 10.8-12.5 37.7-30.4 69.8-13.9 24.9-30.2 47.7-48.4 67.6-22.3 24.6-47.6 45-75.2 60.6-65.3 37.1-111.7 56.2-139.2 65.7-20.9 7.2-34.2 10.1-40.4 11.2-6.2-1.1-19.5-4-40.4-11.2-27.5-9.5-73.9-28.6-139.2-65.7-27.1-15.4-51.9-35.3-74-59.3-18-19.6-34.2-41.9-48.1-66.4-18.8-33-28.5-61.3-31.9-72.5l-1-398.2c2.3 0 4.6 0.1 7 0.1 29.4 0 65.5-2.7 107.1-8 98.5-12.5 177.4-63.3 220.5-97.3 43.1 34 122 84.8 220.5 97.3 41.6 5.3 77.7 8 107.1 8 2.4 0 4.7 0 7-0.1l-1 398.4z m-281.3-225l84.4 27.6-52 71.9-0.2 88.8-84.5-27.3-84.5 27.3-0.2-88.8-52-71.9 84.4-27.6 52.3-71.7 52.3 71.7z" fill="#1196db" p-id="4380"></path></svg>