<?xml version="1.0" standalone="no"?><!DOCTYPE svg PUBLIC "-//W3C//DTD SVG 1.1//EN" "http://www.w3.org/Graphics/SVG/1.1/DTD/svg11.dtd"><svg t="1557501829318" class="icon" style="" viewBox="0 0 1024 1024" version="1.1" xmlns="http://www.w3.org/2000/svg" p-id="2111" xmlns:xlink="http://www.w3.org/1999/xlink" width="16" height="16"><defs><style type="text/css"></style></defs><path d="M512.033845 0C229.299706 0 0.067701 229.232005 0.067701 511.966144 1.1e-05 794.835662 229.232016 1023.999977 512.033845 1023.999977c282.734139 0 511.896197-229.232005 511.896197-511.966144C1023.999989 229.232005 794.767984 0 512.033845 0zM512.033845 955.477444c-244.459987 0-443.373664-198.913678-443.373664-443.373664S267.573858 68.727859 512.033845 68.727859c244.459987-0.06769 443.305974 198.845988 443.305974 443.373664C955.407509 756.49382 756.493832 955.477444 512.033845 955.477444z" p-id="2112" fill="#515151"></path><path d="M707.863117 399.819696l-198.297699 198.365389-198.297699-198.365389c-13.375533-13.375533-35.119801-13.375533-48.493078 0s-13.375533 35.119801 0 48.493078l222.440447 222.440447c6.721612 6.859248 15.570944 10.013599 24.35033 10.013599 8.849332 0 17.628718-3.361934 24.35033-10.013599l222.372757-222.440447c13.375533-13.375533 13.375533-35.119801 0-48.493078S721.236395 386.444163 707.863117 399.819696z" p-id="2113" fill="#515151"></path></svg>