<?xml version="1.0" standalone="no"?><!DOCTYPE svg PUBLIC "-//W3C//DTD SVG 1.1//EN" "http://www.w3.org/Graphics/SVG/1.1/DTD/svg11.dtd"><svg t="1585058178526" class="icon" viewBox="0 0 1024 1024" version="1.1" xmlns="http://www.w3.org/2000/svg" p-id="2175" xmlns:xlink="http://www.w3.org/1999/xlink" width="48" height="48"><defs><style type="text/css"></style></defs><path d="M823.672974 299.313993 679.488107 155.13936l72.121598-72.086805c23.899316-23.86657 62.591547-23.86657 86.48677 0l57.665351 57.659211c23.901363 23.901363 23.901363 62.654992 0 86.549192L823.672974 299.313993 823.672974 299.313993zM404.795884 718.17164 260.615111 573.995983l391.976416-388.894218 144.18282 144.175657L404.795884 718.17164 404.795884 718.17164zM144.786059 836.410578l87.722924-234.313583L375.482255 745.103012 144.786059 836.410578 144.786059 836.410578zM792.286126 885.688911c20.181645 0 36.519752 16.33913 36.519752 36.520775 0 20.152992-16.33913 36.494169-36.519752 36.494169L146.485771 958.703855c-20.147876 0-36.494169-16.341177-36.494169-36.494169 0-20.182668 16.34527-36.520775 36.494169-36.520775L792.286126 885.688911 792.286126 885.688911zM792.286126 885.688911" p-id="2176" fill="#515151"></path></svg>