<?xml version="1.0" standalone="no"?><!DOCTYPE svg PUBLIC "-//W3C//DTD SVG 1.1//EN" "http://www.w3.org/Graphics/SVG/1.1/DTD/svg11.dtd"><svg t="1555317579059" class="icon" style="" viewBox="0 0 1024 1024" version="1.1" xmlns="http://www.w3.org/2000/svg" p-id="2850" xmlns:xlink="http://www.w3.org/1999/xlink" width="16" height="16"><defs><style type="text/css"></style></defs><path d="M423.936 480.256s-1.536-102.912 78.336-110.592c0 0 99.84-13.824 97.28 105.472 0 0 2.56 33.28-88.064 114.176 0 0-30.72 39.424-30.72 87.04v71.68s11.776 24.576 33.792 24.064c0 0 23.552-1.024 32.768-22.016v-78.336s-5.12-20.992 52.224-75.264c0 0 56.32-62.464 64-116.736 0 0 19.456-123.904-96.256-171.008 0 0-130.56-50.176-195.072 84.992 0 0-17.92 46.08-12.288 79.872 0 0 6.656 26.112 29.696 27.648 0 0 19.456 2.56 27.648-9.216 0.512 0 6.144-6.656 6.656-11.776z" p-id="2851" fill="#515151"></path><path d="M231.936 861.696c-107.008-85.504-167.936-212.992-167.936-349.696 0-246.784 201.216-448 448-448s448 201.216 448 448c0 136.192-60.928 263.68-167.424 349.184l-38.4-47.616c91.648-73.728 144.384-183.808 144.384-301.056 0-212.992-173.568-386.56-386.56-386.56S125.44 299.008 125.44 512c0 117.76 52.736 227.84 144.896 302.08l-38.4 47.616z" p-id="2852" fill="#515151"></path><path d="M512 919.04m-40.96 0a40.96 40.96 0 1 0 81.92 0 40.96 40.96 0 1 0-81.92 0Z" p-id="2853" fill="#515151"></path><path d="M282.112 837.632c0 16.896-13.824 30.72-30.72 30.72s-30.72-13.824-30.72-30.72 13.824-30.72 30.72-30.72c6.144 0 12.288 2.048 17.408 5.12 7.68 5.632 13.312 14.848 13.312 25.6zM803.84 837.632c0 9.728-4.608 18.432-11.776 24.064-5.12 4.096-11.776 6.656-18.944 6.656-16.896 0-30.72-13.824-30.72-30.72s13.824-30.72 30.72-30.72c6.144 0 12.288 2.048 17.408 5.12 7.68 5.632 13.312 14.848 13.312 25.6z" p-id="2854" fill="#515151"></path></svg>