<?xml version="1.0" standalone="no"?><!DOCTYPE svg PUBLIC "-//W3C//DTD SVG 1.1//EN" "http://www.w3.org/Graphics/SVG/1.1/DTD/svg11.dtd"><svg t="1556447472154" class="icon" style="" viewBox="0 0 1024 1024" version="1.1" xmlns="http://www.w3.org/2000/svg" p-id="1960" xmlns:xlink="http://www.w3.org/1999/xlink" width="32" height="32"><defs><style type="text/css"></style></defs><path d="M511.487835 64.388473c246.665913 0 447.354678 200.660112 447.354678 447.355701 0 246.694565-200.688765 447.354678-447.354678 447.354678-246.695588 0-447.355701-200.660112-447.355701-447.354678C64.132134 265.048585 264.792247 64.388473 511.487835 64.388473L511.487835 64.388473 511.487835 64.388473zM236.695329 825.581951c-0.217964-14.062274 8.16496-27.439956 22.062482-32.929993 22.635533-8.92937 78.691223-35.112706 148.290371-47.51006L407.048181 730.316238C337.450057 662.000316 296.383756 533.99699 296.383756 437.284321c0-138.022517 71.920006-217.179344 197.547215-217.179344 128.959094 0 209.233372 81.20344 209.233372 217.179344 0 46.718021-17.637706 200.087061-87.265506 284.374746l0 18.621103c34.814923 8.600889 106.926288 27.197432 154.271596 43.960211 16.384156 5.817496 23.290449 22.581298 20.231787 39.101553 85.980233-76.53614 139.66083-187.69073 139.66083-311.598784 0-230.340085-187.852412-417.757592-418.138262-417.757592-230.367715 0-417.97658 187.417507-417.97658 417.757592C93.948207 636.82596 149.266094 748.93734 236.695329 825.581951L236.695329 825.581951 236.695329 825.581951zM236.695329 825.581951" p-id="1961" fill="#8a8a8a"></path></svg>