<?xml version="1.0" standalone="no"?><!DOCTYPE svg PUBLIC "-//W3C//DTD SVG 1.1//EN" "http://www.w3.org/Graphics/SVG/1.1/DTD/svg11.dtd"><svg t="1577520084453" class="icon" viewBox="0 0 1024 1024" version="1.1" xmlns="http://www.w3.org/2000/svg" p-id="5842" xmlns:xlink="http://www.w3.org/1999/xlink" width="48" height="48"><defs><style type="text/css"></style></defs><path d="M869.1 488.1c18.5 10.7 18.5 37.5 0 48.2L525.2 734.8 181.4 933.2c-18.5 10.7-41.7-2.7-41.7-24.1V115.3c0-21.4 23.2-34.8 41.7-24.1l343.8 198.4 343.9 198.5z" fill="#d81e06" p-id="5843"></path><path d="M167.5 960.2c-8.8 0-17.5-2.3-25.5-6.9-16-9.2-25.5-25.8-25.5-44.2V115.3c0-18.5 9.5-35 25.5-44.2s35.1-9.2 51.1 0L880.7 468c16 9.2 25.5 25.8 25.5 44.2 0 18.5-9.5 35-25.5 44.2L193 953.3c-7.9 4.6-16.7 6.9-25.5 6.9z m0-849.5c-0.8 0-1.5 0.2-2.3 0.7-1.5 0.9-2.3 2.2-2.3 4v793.7c0 1.8 0.8 3.1 2.3 4 1.5 0.9 3.1 0.9 4.6 0l687.6-396.9c1.5-0.9 2.3-2.2 2.3-4 0-1.8-0.8-3.1-2.3-4L169.8 111.4c-0.7-0.5-1.5-0.7-2.3-0.7z" fill="#d81e06" p-id="5844"></path></svg>